REM MD5 6b6c7288e1de4ed7f42bda054400caee
FILE "Warhammer - Shadow of the Horned Rat (Europe) (En,Fr,De).bin" BINARY
  TRACK 01 MODE2/2352
    INDEX 01 00:00:00
  TRACK 02 AUDIO
    INDEX 00 54:05:02
    INDEX 01 54:07:02
  TRACK 03 AUDIO
    INDEX 00 56:52:20
    INDEX 01 56:54:20
  TRACK 04 AUDIO
    INDEX 00 57:32:04
    INDEX 01 57:34:04
  TRACK 05 AUDIO
    INDEX 00 61:23:72
    INDEX 01 61:25:72
  TRACK 06 AUDIO
    INDEX 00 67:15:17
    INDEX 01 67:17:17
REM LEADOUT 70:27:26
